<?xml version="1.0" encoding="UTF-8"?>
<svg xmlns="http://www.w3.org/2000/svg" xmlns:xlink="http://www.w3.org/1999/xlink" width="432pt" height="432pt" viewBox="0 0 432 432" version="1.1">
<defs>
<clipPath id="clip1">
  <path d="M 5.480469 5.480469 L 426.523438 5.480469 L 426.523438 401.121094 L 5.480469 401.121094 Z M 5.480469 5.480469 "/>
</clipPath>
<clipPath id="clip2">
  <path d="M 215 5.480469 L 217 5.480469 L 217 401.121094 L 215 401.121094 Z M 215 5.480469 "/>
</clipPath>
</defs>
<g id="surface5503">
<rect x="0" y="0" width="432" height="432" style="fill:rgb(100%,100%,100%);fill-opacity:1;stroke:none;"/>
<rect x="0" y="0" width="432" height="432" style="fill:rgb(100%,100%,100%);fill-opacity:1;stroke:none;"/>
<path style="fill:none;stroke-width:1.066978;stroke-linecap:round;stroke-linejoin:round;stroke:rgb(100%,100%,100%);stroke-opacity:1;stroke-miterlimit:10;" d="M 0 432 L 432 432 L 432 0 L 0 0 Z M 0 432 "/>
<g clip-path="url(#clip1)" clip-rule="nonzero">
<path style=" stroke:none;fill-rule:nonzero;fill:rgb(92.156863%,92.156863%,92.156863%);fill-opacity:1;" d="M 5.480469 401.117188 L 426.523438 401.117188 L 426.523438 5.476562 L 5.480469 5.476562 Z M 5.480469 401.117188 "/>
</g>
<g clip-path="url(#clip2)" clip-rule="nonzero">
<path style="fill:none;stroke-width:1.066978;stroke-linecap:butt;stroke-linejoin:round;stroke:rgb(100%,100%,100%);stroke-opacity:1;stroke-miterlimit:10;" d="M 216 401.117188 L 216 5.480469 "/>
</g>
<path style="fill:none;stroke-width:1.066978;stroke-linecap:butt;stroke-linejoin:round;stroke:rgb(20%,20%,20%);stroke-opacity:1;stroke-miterlimit:10;" d="M 216 403.859375 L 216 401.117188 "/>
<path style=" stroke:none;fill-rule:nonzero;fill:rgb(0%,0%,0%);fill-opacity:1;" d="M 217.550781 424.238281 L 215.988281 421.851562 L 214.414062 424.238281 L 213.375 424.238281 L 215.441406 421.25 L 213.46875 418.425781 L 214.539062 418.425781 L 215.988281 420.6875 L 217.429688 418.425781 L 218.507812 418.425781 L 216.539062 421.242188 L 218.632812 424.238281 Z M 217.550781 424.238281 "/>
</g>
</svg>
